<svg xmlns="http://www.w3.org/2000/svg" width="6.781" height="5.562" viewBox="0 0 6.781 5.562">
  <defs>
    <style>
      .cls-1 {
        fill: #fff;
        fill-rule: evenodd;
      }
    </style>
  </defs>
  <path id="btn-arrow.svg" class="cls-1" d="M760,704h6v1h-6v-1Zm0,0h6v1h-6v-1Zm0,0h6v1h-6v-1Zm3.94-2.269,2.828,2.829-0.707.707-2.829-2.828Zm0,0,2.828,2.829-0.707.707-2.829-2.828Zm0,0,2.828,2.829-0.707.707-2.829-2.828Zm0,0,2.828,2.829-0.707.707-2.829-2.828Zm0,5.536,2.828-2.828-0.707-.707-2.829,2.828Zm0,0,2.828-2.828-0.707-.707-2.829,2.828Zm0,0,2.828-2.828-0.707-.707-2.829,2.828Zm0,0,2.828-2.828-0.707-.707-2.829,2.828Z" transform="translate(-760 -701.719)"/>
</svg>
