<svg xmlns="http://www.w3.org/2000/svg" width="108" height="97.093" viewBox="0 0 108 97.093">
  <defs>
    <style>
      .cls-1 {
        fill: #000;
      }
    </style>
  </defs>
  <path id="cart-icon.svg" class="cls-1" d="M1316.76,126.31h51.93a15.876,15.876,0,0,0,15.45-12.892l10.97-55.852h11.65a2.292,2.292,0,0,0,0-4.583h-13.5a2.255,2.255,0,0,0-2.2,1.841l-11.33,57.692a11.337,11.337,0,0,1-11.04,9.21h-51.93A2.292,2.292,0,0,0,1316.76,126.31Zm-13.5-59.578a2.225,2.225,0,0,0-1.77.881,2.3,2.3,0,0,0-.41,1.963l9,36.665a2.262,2.262,0,0,0,1.88,1.72l67.51,9.164a2.018,2.018,0,0,0,.29.019,2.3,2.3,0,0,0,.3-4.565l-65.99-8.96-7.92-32.3m57.11,71.242a7.366,7.366,0,1,0,7.36-7.5A7.432,7.432,0,0,0,1363.26,142.557Zm-44.86,0a7.366,7.366,0,1,0,7.36-7.5A7.426,7.426,0,0,0,1318.4,142.557Zm-6.12-35.3a2.4,2.4,0,0,0,.56-0.07,2.288,2.288,0,0,0,1.62-2.783l-8.95-36.053a2.233,2.233,0,0,0-2.74-1.662,2.291,2.291,0,0,0-1.62,2.786l8.95,36.051A2.266,2.266,0,0,0,1312.28,107.256Z" transform="translate(-1301 -52.969)"/>
</svg>
