<?xml version="1.0" encoding="UTF-8" standalone="no"?>
<svg width="29px" height="29px" viewBox="0 0 29 29" version="1.1" xmlns="http://www.w3.org/2000/svg" xmlns:xlink="http://www.w3.org/1999/xlink">
    <!-- Generator: Sketch 3.6.1 (26313) - http://www.bohemiancoding.com/sketch -->
    <title>Artboard 1</title>
    <desc>Created with Sketch.</desc>
    <defs></defs>
    <g id="Page-1" stroke="none" stroke-width="1" fill="none" fill-rule="evenodd">
        <g id="Artboard-1">
            <g id="cart-x-hover" transform="translate(1.000000, 1.000000)">
                <path d="M4,4 C9.3,-1.2 17.8,-1.3 23,4 C28.3,9.3 28.3,17.8 23,23.1 C17.8,28.3 9.2,28.3 3.9,23 C-1.3,17.8 -1.3,9.2 4,4 Z" id="Shape" fill="#9B9B9B"></path>
                <path d="M22.2,4.8 C17.4,-8.8817842e-16 9.6,-8.8817842e-16 4.8,4.8 C8.8817842e-16,9.6 8.8817842e-16,17.4 4.8,22.2 C9.6,27 17.3,27 22.1,22.2 C26.9,17.4 26.9,9.6 22.2,4.8 L22.2,4.8 L22.2,4.8 Z" id="Shape" fill="#9B9B9B"></path>
                <path d="M8.7,19.2 L7.8,18.3 L12.6,13.5 L7.8,8.7 L8.7,7.8 L13.5,12.6 L18.3,7.8 L19.2,8.7 L14.4,13.5 L19.2,18.3 L18.3,19.2 L13.5,14.4 L8.7,19.2 Z" id="Shape" fill="#FFFFFF"></path>
            </g>
        </g>
    </g>
</svg>