<svg xmlns="http://www.w3.org/2000/svg" width="27" height="27" viewBox="0 0 27 27">
  <defs>
    <style>
      .cls-1 {
        fill: #5ec26a;
        fill-rule: evenodd;
      }
    </style>
  </defs>
  <path id="_X_" data-name="&quot;X&quot;" class="cls-1" d="M1235.95,270.047a13.5,13.5,0,1,1,19.1,0A13.526,13.526,0,0,1,1235.95,270.047Zm18.22-18.219a12.262,12.262,0,1,0,0,17.344A12.274,12.274,0,0,0,1254.17,251.828Zm-13.45,14.366-0.91-.919,4.77-4.775-4.77-4.776,0.91-.919,4.78,4.776,4.78-4.776,0.91,0.919-4.77,4.776,4.77,4.774-0.92.919-4.77-4.775Z" transform="translate(-1232 -247)"/>
</svg>
