<?xml version="1.0" encoding="utf-8"?>
<!-- Generator: Adobe Illustrator 19.2.1, SVG Export Plug-In . SVG Version: 6.00 Build 0)  -->
<svg version="1.1" id="Layer_1" xmlns="http://www.w3.org/2000/svg" xmlns:xlink="http://www.w3.org/1999/xlink" x="0px" y="0px"
	 viewBox="0 0 27 27" style="enable-background:new 0 0 27 27;" xml:space="preserve">
<style type="text/css">
	.st0{fill:#5EC26A;}
	.st1{fill:#FFFFFF;}
</style>
<path class="st0" d="M3.9,23C-1.3,17.8-1.3,9.2,4,4S17.8-1.3,23,4c5.3,5.3,5.3,13.8,0,19.1C17.8,28.3,9.2,28.3,3.9,23z"/>
<path class="st0" d="M22.2,4.8C17.4,0,9.6,0,4.8,4.8S0,17.4,4.8,22.2c4.8,4.8,12.5,4.8,17.3,0C26.9,17.4,26.9,9.6,22.2,4.8L22.2,4.8
	z"/>
<polygon class="st1" points="8.7,19.2 7.8,18.3 12.6,13.5 7.8,8.7 8.7,7.8 13.5,12.6 18.3,7.8 19.2,8.7 14.4,13.5 19.2,18.3 
	18.3,19.2 13.5,14.4 "/>
</svg>
