<svg xmlns="http://www.w3.org/2000/svg" width="59.97" height="16" viewBox="0 0 59.97 16">
  <defs>
    <style>
      .cls-1 {
        fill: #fff;
        fill-rule: evenodd;
      }
    </style>
  </defs>
  <path class="cls-1" d="M1318.32,595.606a2.421,2.421,0,0,0-.9-0.948,4.145,4.145,0,0,0-1.42-.514,11.807,11.807,0,0,0-1.93-.15l-3.41,0a0.848,0.848,0,0,0-.78.615l-2.3,9.851a0.479,0.479,0,0,0,.49.612h1.64a0.835,0.835,0,0,0,.78-0.612l0.56-2.392a0.846,0.846,0,0,1,.79-0.611h0.46a7.823,7.823,0,0,0,4.66-1.21,3.745,3.745,0,0,0,1.67-3.192A3.023,3.023,0,0,0,1318.32,595.606Zm-3.53,3.219a3.461,3.461,0,0,1-2.06.534h-0.4a0.481,0.481,0,0,1-.5-0.614l0.49-2.092a0.829,0.829,0,0,1,.78-0.611l0.54,0a2.651,2.651,0,0,1,1.42.313,1.075,1.075,0,0,1,.47.959A1.741,1.741,0,0,1,1314.79,598.825Zm22.47-1.287-6.51,10.847a1.368,1.368,0,0,1-1.03.612l-1.69,0c-0.35,0-.47-0.275-0.25-0.613l1.45-2.483a1.713,1.713,0,0,0,.01-0.953c-0.22-1.467-1.34-7.7-1.34-7.7a0.479,0.479,0,0,1,.49-0.614l1.47,0a0.9,0.9,0,0,1,.89.63l0.73,4.323,0.27,0c0.22-.4,2.57-4.354,2.57-4.354a1.4,1.4,0,0,1,1.02-.614s1.58,0,1.96,0C1337.88,596.611,1337.26,597.538,1337.26,597.538Zm10.73-1.895a2.451,2.451,0,0,0-.9-0.952,3.921,3.921,0,0,0-1.42-.514,11.288,11.288,0,0,0-1.92-.148l-3.42,0a0.859,0.859,0,0,0-.78.612l-2.29,9.855a0.474,0.474,0,0,0,.49.611l1.64,0a0.844,0.844,0,0,0,.78-0.61l0.55-2.393a0.864,0.864,0,0,1,.79-0.611h0.47a7.877,7.877,0,0,0,4.67-1.209,3.8,3.8,0,0,0,1.66-3.2A3.112,3.112,0,0,0,1347.99,595.643Zm-3.52,3.223a3.513,3.513,0,0,1-2.06.527H1342a0.484,0.484,0,0,1-.5-0.613l0.5-2.088a0.819,0.819,0,0,1,.78-0.611l0.53,0a2.674,2.674,0,0,1,1.42.312,1.059,1.059,0,0,1,.47.96A1.741,1.741,0,0,1,1344.47,598.866Zm-18.27-1.852a6.3,6.3,0,0,0-2.92-.513,13.07,13.07,0,0,0-1.98.151c-0.49.074-.54,0.088-0.84,0.152a0.954,0.954,0,0,0-.72.745l-0.2.81c-0.11.517,0.19,0.5,0.32,0.454a8.5,8.5,0,0,1,.97-0.284,7.214,7.214,0,0,1,1.54-.2,4.035,4.035,0,0,1,1.48.207,0.735,0.735,0,0,1,.49.731l-0.02.228-0.24.143c-0.93.057-1.6,0.142-2.41,0.258a7.518,7.518,0,0,0-2.07.561,3.224,3.224,0,0,0-1.41,1.093,2.961,2.961,0,0,0-.47,1.684,1.978,1.978,0,0,0,.67,1.529,2.51,2.51,0,0,0,1.72.579,4.809,4.809,0,0,0,1.03-.094l0.79-.268,0.67-.366,0.62-.4v0.012l-0.06.258v0.012a0.474,0.474,0,0,0,.43.6l0.01,0.007h1.52l0.02-.009a0.832,0.832,0,0,0,.7-0.6l1.19-5.08,0.07-.414,0.03-.388A1.718,1.718,0,0,0,1326.2,597.014Zm-2.64,5.713-0.25.33-0.65.327a2.3,2.3,0,0,1-.85.182,1.971,1.971,0,0,1-.93-0.175l-0.32-.6a1.211,1.211,0,0,1,.24-0.786l0.7-.464a5.83,5.83,0,0,1,1.07-.24c0.38-.045,1.11-0.129,1.21-0.131l0.11,0.2C1323.87,601.474,1323.66,602.337,1323.56,602.727Zm40.81-9.28h0.55v0.221h-0.55v0.91l0.04,0.129,0.09,0.082,0.16,0.026,0.14-.019,0.1-.03h0.02V595l-0.17.032-0.15.013-0.38-.132-0.12-.412v-0.834h-0.18v-0.221h0.18V593h0.27v0.447h0Zm-8.49,3.574a6.3,6.3,0,0,0-2.92-.514,12.794,12.794,0,0,0-1.98.154c-0.49.071-.53,0.086-0.84,0.149a0.933,0.933,0,0,0-.71.746l-0.2.809c-0.12.517,0.18,0.494,0.32,0.454a9.371,9.371,0,0,1,.97-0.285,7.389,7.389,0,0,1,1.53-.2,4.031,4.031,0,0,1,1.48.208,0.732,0.732,0,0,1,.5.73l-0.03.226-0.23.147c-0.94.055-1.61,0.139-2.41,0.256a7.558,7.558,0,0,0-2.08.561,3.14,3.14,0,0,0-1.4,1.095,2.876,2.876,0,0,0-.47,1.677,1.938,1.938,0,0,0,.67,1.531,2.508,2.508,0,0,0,1.71.583,4.668,4.668,0,0,0,1.03-.1l0.79-.265,0.67-.366,0.62-.406,0.01,0.013-0.06.26v0.01a0.469,0.469,0,0,0,.43.6v0h1.52l0.03-.008a0.83,0.83,0,0,0,.69-0.607l1.2-5.073,0.06-.416,0.03-.39A1.7,1.7,0,0,0,1355.88,597.021Zm-2.63,5.713-0.26.334-0.64.324a2.325,2.325,0,0,1-.85.182,1.916,1.916,0,0,1-.93-0.176l-0.32-.6a1.282,1.282,0,0,1,.23-0.788,1.689,1.689,0,0,1,.7-0.463,6.144,6.144,0,0,1,1.08-.238c0.37-.046,1.11-0.132,1.2-0.133l0.12,0.2C1353.56,601.483,1353.35,602.342,1353.25,602.734Zm8.76-8.012h0l-2.18,9.768-0.08.117a0.836,0.836,0,0,1-.71.5h-1.52l-0.02-.034a0.455,0.455,0,0,1-.41-0.572l-0.01-.007,0.07-.281,2.05-9.162,0.07-.319,0.08-.124a0.822,0.822,0,0,1,.7-0.489h1.47A0.475,0.475,0,0,1,1362.01,594.722Zm5.43-1.162,0.12,0.438v1.016h-0.26V594.12l-0.02-.192-0.04-.151-0.09-.09-0.18-.032-0.22.055-0.23.142,0.01,0.076v1.085h-0.26v-0.895l-0.01-.193-0.04-.15-0.09-.09-0.18-.032-0.23.054-0.22.136v1.169h-0.26v-1.565h0.26v0.173l0.25-.159,0.27-.058,0.28,0.065,0.17,0.186,0.29-.2,0.29-.057Z" transform="translate(-1307.59 -593)"/>
</svg>
