<svg xmlns="http://www.w3.org/2000/svg" width="59" height="59" viewBox="0 0 59 59">
  <defs>
    <style>
      .cls-1 {
        fill: #5ec26a;
        fill-rule: evenodd;
      }
    </style>
  </defs>
  <path id="quick-view.svg" class="cls-1" d="M217.5,1389a29.5,29.5,0,1,1-29.5,29.5A29.5,29.5,0,0,1,217.5,1389Zm0,1.37a28.13,28.13,0,1,1-28.128,28.13A28.132,28.132,0,0,1,217.5,1390.37Zm17.151,28.84s-7.449,10.96-16.466,10.96-16.464-10.96-16.464-10.96,7.447-11,16.464-11S234.651,1419.21,234.651,1419.21Zm-9.074,0a7.4,7.4,0,1,0-7.392,7.72A7.591,7.591,0,0,0,225.577,1419.21Zm-7.392-3.48a3.427,3.427,0,0,0-3.289,3.48,3.357,3.357,0,0,0,3.289,3.43,3.415,3.415,0,0,0,3.329-3.43A3.487,3.487,0,0,0,218.185,1415.73Z" transform="translate(-188 -1389)"/>
</svg>
