<svg xmlns="http://www.w3.org/2000/svg" width="40" height="40" viewBox="0 0 40 40">
  <defs>
    <style>
      .cls-1 {
        fill: #fff;
        fill-rule: evenodd;
      }
    </style>
  </defs>
  <path id="refresh.svg" class="cls-1" d="M358,3092a20,20,0,1,1,7.794-38.43,20.9,20.9,0,0,1,6.354,4.28l-1.322,1.37a18.554,18.554,0,0,0-5.774-3.89,18.1,18.1,0,0,0-19.844,3.87,18.1,18.1,0,0,0,5.75,29.47,18.1,18.1,0,0,0,19.835-3.87A18.1,18.1,0,0,0,376.1,3072H378a19.673,19.673,0,0,1-1.577,7.78A19.971,19.971,0,0,1,358,3092Zm19.992-25.48H367.514v-1.9h8.569v-8.57h1.9v10.47Z" transform="translate(-338 -3052)"/>
</svg>
