<svg xmlns="http://www.w3.org/2000/svg" width="25" height="25" viewBox="0 0 25 25">
  <defs>
    <style>
      .cls-1 {
        fill: #5ec26a;
        fill-rule: evenodd;
      }
    </style>
  </defs>
  <path class="cls-1" d="M948,900.5a12.508,12.508,0,0,1,17.368-11.517,13.062,13.062,0,0,1,3.972,2.671l-0.827.856a11.732,11.732,0,0,0-3.609-2.431A11.306,11.306,0,0,0,949.19,900.5H948Zm25-3.5h-6v-1h5v-5h1v6Zm0,3.5a12.508,12.508,0,0,1-17.368,11.517,13.062,13.062,0,0,1-3.972-2.671l0.827-.856a11.732,11.732,0,0,0,3.609,2.431A11.306,11.306,0,0,0,971.81,900.5H973ZM948,904h6v1h-5v5h-1v-6Z" transform="translate(-948 -888)"/>
</svg>
