<?xml version="1.0" encoding="UTF-8" standalone="no"?>
<svg width="29px" height="29px" viewBox="0 0 29 29" version="1.1" xmlns="http://www.w3.org/2000/svg" xmlns:xlink="http://www.w3.org/1999/xlink">
    <!-- Generator: Sketch 3.6.1 (26313) - http://www.bohemiancoding.com/sketch -->
    <title>Artboard 1</title>
    <desc>Created with Sketch.</desc>
    <defs></defs>
    <g id="Page-1" stroke="none" stroke-width="1" fill="none" fill-rule="evenodd">
        <g id="Artboard-1" fill="#9B9B9B">
            <g id="cart-x" transform="translate(1.000000, 1.000000)">
                <g id="Page-1">
                    <g id="Artboard-1">
                        <path d="M3.95,23.047 C-1.3187792,17.7737379 -1.31635657,9.228098 3.95541166,3.95782408 C9.2271799,-1.31244985 17.7728201,-1.31244985 23.0445883,3.95782408 C28.3163566,9.228098 28.3187792,17.7737379 23.05,23.047 C17.7710625,28.3101584 9.2289375,28.3101584 3.95,23.047 L3.95,23.047 L3.95,23.047 Z M22.17,4.828 C17.380966,0.04057496 9.617846,0.0414445 4.82988462,4.82994225 C0.04192319,9.61844 0.04192319,17.38156 4.82988462,22.1700577 C9.617846,26.9585555 17.380966,26.959425 22.17,22.172 C26.9539312,17.3803172 26.9539312,9.6196828 22.17,4.828 L22.17,4.828 L22.17,4.828 Z M8.72,19.194 L7.81,18.275 L12.58,13.5 L7.81,8.724 L8.72,7.805 L13.5,12.581 L18.28,7.805 L19.19,8.724 L14.42,13.5 L19.19,18.274 L18.27,19.193 L13.5,14.418 L8.72,19.194 L8.72,19.194 Z" id="_X_"></path>
                    </g>
                </g>
            </g>
        </g>
    </g>
</svg>