<svg id="logo" xmlns="http://www.w3.org/2000/svg" width="183" height="77" viewBox="0 0 183 77">
  <defs>
    <style>
      .cls-1 {
        fill: #606c82;
      }

      .cls-1, .cls-2 {
        fill-rule: evenodd;
      }

      .cls-2 {
        fill: #5ec26a;
      }
    </style>
  </defs>
  <path id="logo-2" data-name="logo" class="cls-1" d="M628,141.638l2.181-2.6a9.473,9.473,0,0,0,6.506,2.686c2.239,0,3.651-1.031,3.651-2.6v-0.061c0-1.474-.824-2.271-4.652-3.157-4.388-1.062-6.861-2.36-6.861-6.166v-0.058c0-3.54,2.946-5.991,7.037-5.991a11.408,11.408,0,0,1,7.479,2.6l-1.945,2.743a9.342,9.342,0,0,0-5.593-2.124c-2.118,0-3.356,1.092-3.356,2.449v0.059c0,1.593.943,2.3,4.888,3.245,4.356,1.063,6.625,2.625,6.625,6.048v0.061c0,3.864-3.034,6.168-7.361,6.168a12.692,12.692,0,0,1-8.6-3.306m16.966-7.261V134.32a10.437,10.437,0,0,1,10.627-10.68,10.729,10.729,0,0,1,8.068,3.215l-2.327,2.684a8.192,8.192,0,0,0-5.769-2.567c-3.947,0-6.8,3.246-6.8,7.289v0.059c0,4.042,2.855,7.347,6.8,7.347,2.53,0,4.151-1.033,5.916-2.686l2.326,2.361a10.613,10.613,0,0,1-8.36,3.658,10.375,10.375,0,0,1-10.481-10.623m36.541,0V134.32a7.071,7.071,0,0,0-7.007-7.348,6.972,6.972,0,0,0-6.948,7.289v0.059a7.069,7.069,0,0,0,7.007,7.347,6.973,6.973,0,0,0,6.948-7.29m-17.755,0V134.32a10.777,10.777,0,0,1,21.552-.059v0.059a10.777,10.777,0,0,1-21.552.057m27.532-7.02h-6.537v-3.364H701.47v3.364h-6.534v17.289h-3.652V127.357Zm17.8,0h-6.534v-3.364h16.722v3.364h-6.538v17.289h-3.65V127.357Zm25.328-3.364h4.008l6.213,15.874,6.181-15.874h3.915l-8.569,20.8h-3.18Zm21.5,0H771.2v3.246H759.536v5.369H769.87v3.247H759.536V141.4h11.805v3.245H755.913V123.993Zm17.067,17.645,2.182-2.6a9.469,9.469,0,0,0,6.506,2.686c2.237,0,3.652-1.031,3.652-2.6v-0.061c0-1.474-.827-2.271-4.654-3.157-4.386-1.062-6.858-2.36-6.858-6.166v-0.058c0-3.54,2.943-5.991,7.037-5.991a11.417,11.417,0,0,1,7.478,2.6l-1.946,2.743a9.342,9.342,0,0,0-5.592-2.124c-2.121,0-3.357,1.092-3.357,2.449v0.059c0,1.593.942,2.3,4.889,3.245,4.356,1.063,6.626,2.625,6.626,6.048v0.061c0,3.864-3.035,6.168-7.364,6.168a12.689,12.689,0,0,1-8.6-3.306m23.033-14.281h-6.536v-3.364H806.2v3.364h-6.535v17.289h-3.654V127.357Zm13.234-1.741a0.326,0.326,0,0,0,.383-0.307,0.316,0.316,0,0,0-.383-0.31H808.79v0.617h0.457Zm-0.818-.937h0.85a0.622,0.622,0,0,1,.723.6,0.567,0.567,0,0,1-.436.574l0.5,0.715H809.63l-0.446-.651H808.79v0.651h-0.361v-1.886Zm2.359,0.98v-0.011a1.637,1.637,0,1,0-3.273.011v0.01a1.637,1.637,0,1,0,3.273-.01m-3.484.01v-0.01a1.848,1.848,0,1,1,3.7-.011v0.011a1.848,1.848,0,1,1-3.7.01m-63.635-54.08-0.007.138-0.021,31.766a1.972,1.972,0,0,1-1.016,1.594c-0.239.1-.569,0.232-0.988,0.405-14.582,5.995-20.185,7.659-22.243,7.91-2.058-.251-7.661-1.915-22.243-7.91-0.42-.173-0.75-0.309-0.988-0.405a1.97,1.97,0,0,1-1.016-1.594l-0.022-31.766-0.006-.138a1.09,1.09,0,0,1,.121-0.564,0.566,0.566,0,0,1,.245-0.037H743.3a0.57,0.57,0,0,1,.245.037,1.111,1.111,0,0,1,.121.564m2.084-2.577A3.187,3.187,0,0,0,743.3,68H695.485a3.184,3.184,0,0,0-2.45,1.013,3.885,3.885,0,0,0-.892,2.769v31.375h0a5.035,5.035,0,0,0,2.913,4.707l0.961,0.394c12.834,5.276,20.3,7.879,23.375,8.146,3.075-.267,10.54-2.87,23.375-8.146l0.96-.394a5.036,5.036,0,0,0,2.914-4.707h0V71.781a3.885,3.885,0,0,0-.892-2.769m-7.345,32.682-19.014,7.813-19.014-7.813V75.567h38.028v26.127ZM719.394,74.433H699.263v28.045l20.131,7.35,20.13-7.35V74.433h-20.13Zm29.341-3.253h-0.563V70.8h1.534V71.18h-0.563v1.479h-0.408V71.18Zm1.284-.377h0.439l0.487,0.785,0.486-.785h0.44v1.856h-0.4V71.447l-0.521.792h-0.011l-0.516-.785v1.2h-0.4V70.8Z" transform="translate(-628 -68)"/>
  <path id="e" class="cls-2" d="M731,134.645c-0.237-2.3-1.591-4.1-3.948-4.1-2.179,0-3.707,1.682-4.032,4.1H731Zm-11.515,1.15v-0.057c0-4.454,3.15-8.115,7.6-8.115,4.947,0,7.449,3.894,7.449,8.381,0,0.324-.031.648-0.06,1H723.047a4.345,4.345,0,0,0,4.475,3.957,5.637,5.637,0,0,0,4.212-1.861l2.09,1.861a7.856,7.856,0,0,1-6.363,2.92,7.765,7.765,0,0,1-7.977-8.087" transform="translate(-628 -68)"/>
</svg>
