<svg xmlns="http://www.w3.org/2000/svg" width="60" height="18" viewBox="0 0 60 18">
  <defs>
    <style>
      .cls-1 {
        fill: #fff;
        fill-rule: evenodd;
      }
    </style>
  </defs>
  <path class="cls-1" d="M1110.78,603.7a2.528,2.528,0,0,1-.7-1.714V599.1c0-1.218.09-2.339-.82-3.18a4.214,4.214,0,0,0-2.8-.92c-1.76,0-3.73.655-4.15,2.829a0.332,0.332,0,0,0,.28.388l1.8,0.193a0.382,0.382,0,0,0,.32-0.339,1.423,1.423,0,0,1,1.5-1.109,1.245,1.245,0,0,1,1.04.481,2.355,2.355,0,0,1,.22,1.339v0.238a13.034,13.034,0,0,0-3.49.644,3.142,3.142,0,0,0-1.98,3.02,2.632,2.632,0,0,0,2.78,2.882,3.683,3.683,0,0,0,3.06-1.345,4.527,4.527,0,0,0,1.07,1.235,0.394,0.394,0,0,0,.44-0.043v0c0.37-.325,1.04-0.913,1.42-1.227A0.35,0.35,0,0,0,1110.78,603.7Zm-3.31-2.794a3.566,3.566,0,0,1-.35,1.961,1.5,1.5,0,0,1-1.28.839,1.162,1.162,0,0,1-1.13-1.339c0-1.576,1.42-1.861,2.76-1.861v0.4Zm4.76,4.218v-9.489a0.349,0.349,0,0,1,.36-0.341h1.73a0.34,0.34,0,0,1,.33.317v1.24h0.04a2.552,2.552,0,0,1,4.85,0,2.753,2.753,0,0,1,4.72-.72,5.089,5.089,0,0,1,.47,2.975l-0.01,5.987a0.35,0.35,0,0,1-.35.343h-1.86a0.352,0.352,0,0,1-.33-0.343v-5.03a11.684,11.684,0,0,0-.06-1.78,0.959,0.959,0,0,0-1.09-.816,1.23,1.23,0,0,0-1.11.777,5.742,5.742,0,0,0-.17,1.819v5.03a0.352,0.352,0,0,1-.36.343h-1.85a0.354,0.354,0,0,1-.34-0.343v-5.03c0-1.059.17-2.616-1.15-2.616s-1.27,1.519-1.27,2.616v5.03a0.352,0.352,0,0,1-.36.343h-1.86A0.341,0.341,0,0,1,1112.23,605.12Zm26.99,3.958A22.906,22.906,0,0,1,1126.33,613a23.351,23.351,0,0,1-15.74-5.986c-0.33-.293-0.04-0.693.35-0.464a31.812,31.812,0,0,0,15.76,4.16,31.48,31.48,0,0,0,12.02-2.447C1139.31,608.016,1139.8,608.653,1139.22,609.078Zm4.44-5.687v1.449a0.321,0.321,0,0,1-.44.311,7.067,7.067,0,0,0-6.45.009,0.319,0.319,0,0,1-.43-0.31v-1.377a1.64,1.64,0,0,1,.22-0.933l3.66-5.232h-3.19a0.338,0.338,0,0,1-.35-0.341V595.61a0.338,0.338,0,0,1,.35-0.344h6.1a0.335,0.335,0,0,1,.35.344v1.162a1.915,1.915,0,0,1-.46.853l-3.16,4.5a6.775,6.775,0,0,1,3.48.743A0.616,0.616,0,0,1,1143.66,603.391Zm-11.85-4.371a13.031,13.031,0,0,0-3.49.642,3.146,3.146,0,0,0-1.98,3.022,2.632,2.632,0,0,0,2.78,2.882,3.683,3.683,0,0,0,3.06-1.345,4.527,4.527,0,0,0,1.07,1.235,0.392,0.392,0,0,0,.44-0.043v0c0.37-.325,1.04-0.913,1.42-1.227a0.346,0.346,0,0,0,.01-0.49,2.528,2.528,0,0,1-.7-1.714V599.1c0-1.219.09-2.34-.81-3.18a4.249,4.249,0,0,0-2.8-.92c-1.77,0-3.74.655-4.15,2.829a0.32,0.32,0,0,0,.27.388l1.8,0.192a0.4,0.4,0,0,0,.33-0.338,1.406,1.406,0,0,1,1.49-1.11,1.233,1.233,0,0,1,1.04.482,2.359,2.359,0,0,1,.23,1.339l-0.01.235h0Zm0,1.882a3.652,3.652,0,0,1-.34,1.961,1.519,1.519,0,0,1-1.28.839,1.164,1.164,0,0,1-1.14-1.339c0-1.576,1.42-1.861,2.76-1.861v0.4Zm16.92-5.812c-2.68,0-4.17,2.3-4.17,5.25,0,2.936,1.47,5.291,4.17,5.291,2.6,0,4.25-2.3,4.25-5.19C1152.98,597.447,1151.49,595.09,1148.73,595.09Zm0,8.586c-1.45,0-1.44-2.475-1.44-3.634s0.09-3.014,1.46-3.014a1.158,1.158,0,0,1,1.21.919,8.483,8.483,0,0,1,.28,2.516C1150.25,601.679,1150.18,603.676,1148.73,603.676Zm12.78-7.467a5.96,5.96,0,0,1,.49,2.954v5.973a0.362,0.362,0,0,1-.36.3h-1.86a0.349,0.349,0,0,1-.33-0.3v-5.154c0-1.037.12-2.556-1.16-2.556a1.2,1.2,0,0,0-1.07.759,4.055,4.055,0,0,0-.3,1.8v5.107a0.353,0.353,0,0,1-.36.346h-1.85a0.357,0.357,0,0,1-.34-0.346V595.6a0.355,0.355,0,0,1,.36-0.31h1.72a0.35,0.35,0,0,1,.33.267v1.45h0.03a2.525,2.525,0,0,1,2.53-1.916A2.448,2.448,0,0,1,1161.51,596.209ZM1142.16,606.3c0.38,0.473-.1,3.737-1.98,5.291-0.28.238-.56,0.11-0.43-0.207,0.42-1.044,1.36-3.388.92-3.956s-2.95-.268-4.07-0.136c-0.34.04-.39-0.256-0.09-0.47C1138.51,605.426,1141.78,605.829,1142.16,606.3Z" transform="translate(-1102 -595)"/>
</svg>
