<?xml version="1.0" encoding="utf-8"?>
<!-- Generator: Adobe Illustrator 19.2.1, SVG Export Plug-In . SVG Version: 6.00 Build 0)  -->
<svg version="1.1" id="logo" xmlns="http://www.w3.org/2000/svg" xmlns:xlink="http://www.w3.org/1999/xlink" x="0px" y="0px"
	 viewBox="0 0 183 77" style="enable-background:new 0 0 183 77;" xml:space="preserve">
<style type="text/css">
	.st0{fill:#339933;}
</style>
<path id="logo-2" d="M0,73.6L2.2,71c1.7,1.7,4.1,2.7,6.5,2.7c2.2,0,3.7-1,3.7-2.6v-0.1c0-1.5-0.8-2.3-4.7-3.2
	c-4.4-1.1-6.9-2.4-6.9-6.2v-0.1c0-3.5,2.9-6,7-6c2.7-0.1,5.4,0.9,7.5,2.6L13.4,61c-1.6-1.3-3.5-2-5.6-2.1c-2.1,0-3.4,1.1-3.4,2.4
	v0.1c0,1.6,0.9,2.3,4.9,3.2c4.4,1.1,6.6,2.6,6.6,6v0.1c0,3.9-3,6.2-7.4,6.2C5.4,77,2.4,75.8,0,73.6 M17,66.4L17,66.4
	c-0.1-5.8,4.4-10.6,10.2-10.7c0.1,0,0.3,0,0.4,0c3-0.1,6,1.1,8.1,3.2l-2.3,2.7c-1.5-1.6-3.6-2.5-5.8-2.6c-3.9,0-6.8,3.2-6.8,7.3v0.1
	c0,4,2.9,7.3,6.8,7.3c2.5,0,4.2-1,5.9-2.7l2.3,2.4c-2.1,2.4-5.2,3.8-8.4,3.7C21.7,77.1,17,72.5,17,66.7C17,66.6,17,66.5,17,66.4
	 M53.5,66.4L53.5,66.4c0.2-4-2.9-7.2-6.8-7.4c-0.1,0-0.1,0-0.2,0c-3.9,0-7,3.1-7,7c0,0.1,0,0.2,0,0.3v0.1c-0.2,3.9,2.9,7.2,6.8,7.3
	c0.1,0,0.1,0,0.2,0c3.9,0,7-3.1,7-7C53.5,66.6,53.5,66.5,53.5,66.4 M35.8,66.4L35.8,66.4c0.1-6,4.9-10.8,10.9-10.7
	c5.8,0.1,10.6,4.8,10.7,10.6v0.1c-0.1,6-4.9,10.7-10.9,10.7C40.6,76.9,35.8,72.2,35.8,66.4 M63.3,59.4h-6.5V56h16.7v3.4h-6.5v17.3
	h-3.7L63.3,59.4L63.3,59.4z M81.1,59.4h-6.5V56h16.7v3.4h-6.5v17.3h-3.7L81.1,59.4L81.1,59.4z M106.4,56h4l6.2,15.9l6.2-15.9h3.9
	l-8.6,20.8H115L106.4,56z M127.9,56h15.3v3.2h-11.7v5.4h10.3v3.2h-10.3v5.5h11.8v3.2h-15.4L127.9,56L127.9,56z M145,73.6l2.2-2.6
	c1.7,1.7,4.1,2.7,6.5,2.7c2.2,0,3.7-1,3.7-2.6v-0.1c0-1.5-0.8-2.3-4.7-3.2c-4.4-1.1-6.9-2.4-6.9-6.2v-0.1c0-3.5,2.9-6,7-6
	c2.7-0.1,5.4,0.9,7.5,2.6l-1.9,2.7c-1.6-1.3-3.5-2-5.6-2.1c-2.1,0-3.4,1.1-3.4,2.4v0.1c0,1.6,0.9,2.3,4.9,3.2c4.4,1.1,6.6,2.6,6.6,6
	v0.1c0,3.9-3,6.2-7.4,6.2C150.4,77,147.3,75.8,145,73.6 M168,59.4h-6.5V56h16.7v3.4h-6.5v17.3H168L168,59.4L168,59.4z M181.2,57.6
	c0.2,0,0.3-0.1,0.4-0.3c0,0,0,0,0,0c0-0.2-0.1-0.3-0.3-0.3c0,0,0,0-0.1,0h-0.5v0.6H181.2L181.2,57.6z M180.4,56.7h0.8
	c0.3-0.1,0.7,0.2,0.7,0.5c0,0,0,0.1,0,0.1c0,0.3-0.2,0.5-0.4,0.6l0.5,0.7h-0.4l-0.4-0.7h-0.4v0.7h-0.4L180.4,56.7L180.4,56.7z
	 M182.8,57.7L182.8,57.7c0-0.9-0.7-1.7-1.6-1.7c-0.9,0-1.7,0.7-1.7,1.6c0,0,0,0.1,0,0.1v0c0,0.9,0.7,1.7,1.6,1.7
	S182.8,58.6,182.8,57.7C182.8,57.7,182.8,57.7,182.8,57.7 M179.3,57.7L179.3,57.7c0-1,0.8-1.9,1.8-1.9s1.9,0.8,1.9,1.8v0
	c0,1-0.8,1.9-1.8,1.9C180.1,59.5,179.3,58.7,179.3,57.7L179.3,57.7 M115.7,3.6l0,0.1l0,31.8c0,0.7-0.4,1.3-1,1.6
	c-0.2,0.1-0.6,0.2-1,0.4c-14.6,6-20.2,7.7-22.2,7.9c-2.1-0.3-7.7-1.9-22.2-7.9c-0.4-0.2-0.8-0.3-1-0.4c-0.6-0.3-1-0.9-1-1.6l0-31.8
	l0-0.1c0-0.2,0-0.4,0.1-0.6c0.1,0,0.2,0,0.2,0h47.8c0.1,0,0.2,0,0.2,0C115.6,3.2,115.7,3.4,115.7,3.6 M117.8,1c-0.6-0.7-1.5-1-2.4-1
	H67.5c-0.9,0-1.8,0.3-2.5,1c-0.6,0.8-1,1.8-0.9,2.8v31.4l0,0c-0.1,2,1.1,3.9,2.9,4.7l1,0.4c12.8,5.3,20.3,7.9,23.4,8.1
	c3.1-0.3,10.5-2.9,23.4-8.1l1-0.4c1.8-0.8,3-2.7,2.9-4.7l0,0V3.8C118.7,2.8,118.4,1.8,117.8,1 M110.4,33.7l-19,7.8l-19-7.8V7.6h38
	L110.4,33.7L110.4,33.7z M91.4,6.4H71.3v28l20.1,7.3l20.1-7.3v-28H91.4z M120.7,3.2h-0.6V2.8h1.5v0.4h-0.6v1.5h-0.4V3.2z M122,2.8
	h0.4l0.5,0.8l0.5-0.8h0.4v1.9h-0.4V3.4L123,4.2h0l-0.5-0.8v1.2H122L122,2.8L122,2.8z"/>
<path id="e" class="st0" d="M103,66.6c-0.2-2.3-1.6-4.1-3.9-4.1c-2.2,0-3.7,1.7-4,4.1H103z M91.5,67.8L91.5,67.8
	c0-4.5,3.2-8.2,7.6-8.2c4.9,0,7.4,3.9,7.4,8.4c0,0.3,0,0.6-0.1,1H95c0.2,2.3,2.2,4,4.5,4c1.6,0,3.1-0.7,4.2-1.9l2.1,1.9
	c-1.5,1.9-3.9,3-6.4,2.9c-4.3,0.1-7.9-3.3-8-7.5C91.5,68.2,91.5,68,91.5,67.8"/>
</svg>
