<?xml version="1.0" encoding="utf-8"?>
<!-- Generator: Adobe Illustrator 19.2.1, SVG Export Plug-In . SVG Version: 6.00 Build 0)  -->
<svg version="1.1" id="Layer_1" xmlns="http://www.w3.org/2000/svg" xmlns:xlink="http://www.w3.org/1999/xlink" x="0px" y="0px"
	 viewBox="0 0 59 59" style="enable-background:new 0 0 59 59;" xml:space="preserve">
<style type="text/css">
	.st0{fill:#5EC26A;}
	.st1{fill:#FFFFFF;}
</style>
<path class="st0" d="M29.5,0C45.8,0,59,13.2,59,29.5S45.8,59,29.5,59S0,45.8,0,29.5S13.2,0,29.5,0L29.5,0z"/>
<path class="st0" d="M29.5,1.4C45,1.4,57.6,14,57.6,29.5S45,57.6,29.5,57.6S1.4,45,1.4,29.5c0,0,0,0,0,0C1.4,14,14,1.4,29.5,1.4z"/>
<path class="st1" d="M46.7,30.2c0,0-7.4,11-16.5,11s-16.5-11-16.5-11s7.4-11,16.5-11S46.7,30.2,46.7,30.2z"/>
<path class="st0" d="M37.6,30.2c-0.2-4.1-3.6-7.2-7.7-7.1s-7.2,3.6-7.1,7.7c0.2,4,3.4,7.1,7.4,7.1C34.4,37.8,37.6,34.4,37.6,30.2z"
	/>
<path class="st1" d="M30.2,26.7c-1.9,0.1-3.3,1.6-3.3,3.5c0,1.9,1.4,3.4,3.3,3.4c0,0,0,0,0,0c1.9,0,3.3-1.6,3.3-3.4
	C33.5,28.3,32,26.8,30.2,26.7z"/>
</svg>
