<?xml version="1.0" standalone="no"?>
<!DOCTYPE svg PUBLIC "-//W3C//DTD SVG 20010904//EN"
 "http://www.w3.org/TR/2001/REC-SVG-20010904/DTD/svg10.dtd">
<svg version="1.0" xmlns="http://www.w3.org/2000/svg"
 width="1016.000000pt" height="1016.000000pt" viewBox="0 0 1016.000000 1016.000000"
 preserveAspectRatio="xMidYMid meet">
<metadata>
Created by potrace 1.11, written by Peter Selinger 2001-2013
</metadata>
<g transform="translate(0.000000,1016.000000) scale(0.100000,-0.100000)"
fill="#000000" stroke="none">
<path d="M567 9584 c-1 -1 -20 -4 -42 -8 -22 -3 -51 -8 -65 -11 -14 -4 -30 -7
-36 -9 -7 -1 -45 -18 -86 -38 -80 -40 -185 -133 -214 -190 -9 -18 -20 -35 -23
-38 -10 -7 -59 -121 -65 -150 -3 -14 -11 -45 -17 -70 -9 -34 -12 -809 -13
-3080 -1 -2790 0 -3043 15 -3130 29 -162 79 -281 174 -410 48 -66 135 -152
190 -188 22 -15 42 -30 45 -33 5 -7 158 -90 162 -88 4 1 39 -13 168 -66 126
-52 152 -62 160 -63 3 0 35 -14 73 -31 37 -17 67 -28 67 -24 0 3 6 1 13 -5 6
-5 80 -37 162 -70 172 -69 361 -145 390 -157 11 -5 22 -9 25 -10 3 -1 18 -7
33 -13 16 -7 30 -12 33 -12 5 0 92 -38 116 -51 10 -5 24 -9 31 -9 8 0 27 -6
43 -14 58 -28 305 -126 317 -126 4 0 26 -9 50 -19 23 -11 80 -34 127 -51 47
-18 99 -38 115 -45 25 -11 65 -25 85 -30 3 -1 19 -7 35 -14 83 -35 371 -141
382 -141 7 0 13 -5 13 -10 0 -6 3 -9 8 -8 7 2 73 -17 107 -32 11 -5 72 -27
135 -50 63 -22 122 -43 130 -47 8 -3 20 -7 25 -9 6 -2 89 -30 185 -64 96 -34
180 -63 185 -64 6 -1 69 -22 140 -46 72 -24 133 -45 138 -46 4 -1 10 -3 15 -4
4 -1 12 -3 17 -4 6 -1 17 -5 25 -8 23 -10 84 -28 109 -33 11 -2 26 -7 31 -10
5 -3 20 -8 32 -10 13 -3 60 -16 105 -30 45 -15 90 -28 100 -30 10 -2 63 -15
118 -28 55 -14 114 -29 130 -33 17 -4 32 -8 35 -9 3 0 28 -5 55 -10 28 -4 57
-10 65 -11 8 -2 39 -6 68 -9 29 -4 63 -8 74 -10 12 -3 52 0 88 6 37 5 78 11
91 13 14 1 29 5 34 7 6 3 17 5 25 4 8 -1 26 3 40 8 14 5 36 10 50 12 26 4 153
35 250 61 65 17 57 15 190 54 58 17 112 33 120 35 25 5 604 197 615 203 6 4
15 7 20 7 6 1 19 5 30 9 73 28 105 40 235 86 213 76 560 204 670 247 8 4 17 7
20 8 3 1 16 6 30 12 82 34 96 40 102 42 19 4 45 14 68 24 14 6 28 11 33 13 4
1 9 3 12 4 3 1 8 3 13 4 18 3 178 70 187 78 5 4 16 8 25 8 8 0 28 7 44 15 15
8 33 15 38 15 6 0 24 7 41 14 18 8 100 42 182 74 83 32 159 63 170 67 11 5 22
9 25 10 13 4 49 19 90 37 25 11 50 21 55 22 6 1 27 10 49 19 21 9 41 17 45 17
3 1 24 9 46 20 22 10 43 16 47 14 5 -3 8 -1 8 4 0 6 12 13 27 17 15 3 52 17
81 31 29 13 57 24 62 24 6 0 18 4 28 10 20 11 141 62 227 95 33 12 74 29 90
36 17 7 32 13 35 14 3 1 16 6 30 12 14 6 66 28 115 48 173 71 291 156 395 284
19 24 40 49 45 55 6 7 15 21 21 31 59 107 61 112 110 240 4 11 7 23 6 26 -1 4
3 22 8 40 6 19 13 63 17 99 3 36 6 1426 6 3090 0 2264 -3 3036 -12 3070 -6 25
-13 54 -15 65 -11 74 -124 258 -188 306 -17 13 -36 29 -42 34 -16 16 -127 70
-161 80 -17 5 -32 9 -35 10 -3 1 -25 5 -50 10 -34 7 -9075 15 -9083 9z m9018
-588 c10 -25 12 -634 10 -3036 -1 -1653 -5 -3021 -9 -3040 -5 -19 -11 -39 -14
-45 -4 -5 -7 -15 -8 -22 -4 -24 -63 -100 -104 -133 -26 -21 -111 -63 -214
-105 -182 -76 -203 -84 -211 -85 -3 0 -31 -12 -62 -26 -32 -14 -62 -27 -68
-28 -5 -2 -21 -8 -35 -13 -14 -6 -122 -50 -240 -98 -118 -48 -228 -93 -245
-100 -16 -7 -82 -33 -145 -58 -63 -25 -128 -51 -145 -58 -16 -7 -32 -13 -35
-14 -20 -5 -62 -21 -100 -38 -25 -11 -52 -21 -60 -23 -9 -2 -41 -14 -72 -28
-31 -14 -59 -22 -62 -19 -3 4 -6 1 -6 -5 0 -7 -3 -11 -7 -10 -5 1 -19 -4 -33
-12 -14 -7 -26 -13 -27 -12 -4 2 -33 -8 -58 -19 -11 -4 -72 -28 -135 -52 -63
-24 -124 -48 -135 -52 -11 -4 -24 -9 -30 -11 -15 -4 -235 -87 -330 -124 -11
-5 -47 -18 -80 -30 -33 -12 -71 -26 -85 -32 -14 -6 -68 -25 -120 -43 -52 -18
-147 -52 -210 -75 -63 -23 -119 -43 -125 -44 -10 -3 -24 -8 -62 -23 -10 -3
-20 -7 -23 -8 -11 -2 -176 -57 -190 -62 -8 -4 -17 -7 -20 -8 -3 -1 -84 -27
-180 -58 -96 -31 -188 -59 -205 -63 -16 -4 -34 -9 -40 -13 -5 -3 -14 -6 -20
-7 -5 -1 -33 -9 -62 -17 -28 -8 -54 -13 -57 -10 -3 4 -6 1 -6 -6 0 -7 -6 -11
-14 -8 -7 3 -19 0 -25 -6 -6 -6 -11 -8 -11 -4 0 3 -18 0 -40 -8 -22 -8 -44
-14 -48 -14 -4 0 -45 -9 -92 -20 -88 -21 -167 -34 -210 -35 -44 0 -167 23
-315 61 -11 2 -29 6 -40 8 -11 2 -58 16 -105 30 -47 14 -94 28 -105 30 -11 2
-33 8 -50 15 -16 6 -37 13 -45 15 -8 2 -33 8 -55 14 -22 6 -43 9 -46 8 -3 -1
-12 3 -20 10 -8 6 -26 14 -41 17 -14 2 -36 9 -47 16 -12 6 -21 8 -21 4 0 -3
-6 -2 -12 4 -7 6 -16 11 -20 11 -10 2 -11 2 -178 57 -80 27 -147 49 -150 49
-3 1 -18 7 -33 13 -16 7 -32 12 -36 12 -5 0 -30 9 -57 19 -61 24 -87 34 -96
36 -5 2 -10 4 -13 5 -3 1 -8 3 -12 4 -5 1 -28 9 -53 18 -25 9 -97 35 -160 58
-63 23 -122 44 -130 47 -8 4 -18 5 -22 5 -5 -1 -8 3 -8 8 0 6 -6 10 -12 9 -13
-2 -21 0 -88 29 -19 8 -53 20 -75 27 -22 8 -94 34 -160 60 -66 25 -172 66
-235 90 -63 24 -133 51 -155 61 -22 10 -44 19 -50 20 -5 1 -32 11 -60 22 -241
94 -445 175 -635 252 -124 51 -231 92 -237 93 -7 0 -13 4 -13 9 0 4 -7 8 -15
8 -8 0 -38 11 -67 24 -29 13 -75 32 -103 42 -27 9 -70 27 -95 38 -25 11 -47
21 -50 21 -3 1 -14 5 -25 10 -93 39 -212 87 -220 89 -25 7 -130 53 -170 74
-83 44 -155 148 -172 247 -5 28 -8 1404 -8 3058 0 2888 1 3009 18 3022 15 11
806 13 4503 13 l4486 0 13 -32z"/>
<path d="M1335 8380 c-2 -3 -4 -1177 -4 -2608 0 -2428 1 -2603 17 -2611 9 -5
58 -23 107 -41 103 -38 203 -74 325 -120 47 -17 90 -33 95 -34 14 -4 47 -16
70 -26 11 -5 40 -16 65 -24 25 -8 83 -29 130 -46 47 -17 117 -43 155 -56 39
-14 79 -29 90 -34 11 -5 43 -16 70 -25 28 -9 64 -22 80 -29 17 -8 84 -32 150
-56 66 -23 129 -46 140 -50 11 -5 49 -19 85 -31 36 -12 70 -26 76 -30 6 -5 19
-10 30 -12 10 -2 28 -7 39 -11 11 -5 45 -17 75 -28 30 -11 71 -26 90 -33 19
-7 94 -34 165 -60 72 -25 139 -50 150 -55 11 -5 79 -29 150 -55 72 -25 137
-49 145 -52 8 -4 18 -7 23 -8 4 -2 9 -4 12 -5 3 -1 8 -3 13 -5 4 -1 20 -7 35
-13 16 -7 34 -12 41 -12 7 0 16 -3 19 -7 7 -6 101 -42 122 -46 13 -3 70 -25
112 -43 17 -8 37 -14 45 -14 8 0 18 -3 22 -7 4 -5 11 -8 14 -9 4 0 16 -4 27
-8 11 -4 43 -16 70 -26 28 -10 82 -29 120 -44 142 -53 190 -70 198 -72 4 -1 9
-3 12 -4 3 -1 8 -3 13 -5 4 -1 20 -7 35 -13 15 -7 40 -15 55 -18 15 -4 29 -10
32 -13 3 -3 52 -22 110 -41 58 -19 106 -38 108 -42 3 -6 70 16 127 42 16 7 51
19 75 25 3 1 18 7 33 13 16 7 34 12 40 12 7 0 23 7 35 16 12 8 22 13 22 9 0
-3 17 2 38 11 20 9 42 17 47 18 6 2 21 7 35 13 14 5 104 38 200 73 96 34 189
69 207 76 17 8 36 14 42 14 6 0 19 4 29 9 9 5 40 17 67 26 28 9 59 21 70 26
21 9 107 41 315 115 69 24 134 48 145 54 11 5 43 16 70 25 28 8 59 20 70 25
23 11 183 69 206 74 8 2 33 12 55 21 21 9 77 30 124 46 47 16 94 33 105 38 11
5 160 60 330 122 171 62 346 125 390 142 44 16 118 42 165 59 47 16 94 34 105
39 11 5 45 17 75 28 55 18 352 126 380 138 8 3 20 7 25 8 6 1 37 13 70 26 l60
24 2 2610 2 2611 -3745 0 c-2060 0 -3747 -3 -3749 -6z m7283 -945 c2 -407 3
-749 3 -760 0 -11 0 -773 0 -1693 l-1 -1672 -43 -17 c-23 -10 -45 -17 -49 -15
-5 1 -8 -2 -8 -8 0 -5 -7 -10 -16 -10 -8 0 -34 -8 -57 -19 -23 -10 -67 -29
-97 -41 -30 -12 -68 -28 -85 -35 -16 -8 -93 -39 -170 -70 -77 -31 -159 -66
-182 -76 -23 -10 -48 -19 -55 -19 -8 0 -18 -4 -23 -9 -6 -4 -66 -31 -135 -59
-237 -95 -425 -172 -445 -182 -11 -5 -87 -37 -170 -70 -82 -33 -159 -65 -170
-70 -11 -5 -71 -30 -134 -55 -62 -25 -133 -54 -157 -65 -23 -11 -50 -20 -58
-20 -8 0 -16 -3 -18 -7 -1 -5 -23 -15 -48 -24 -43 -15 -423 -170 -465 -190
-33 -15 -359 -150 -370 -153 -16 -5 -45 -17 -103 -42 -29 -13 -55 -24 -57 -24
-5 0 -269 -108 -330 -135 -89 -39 -96 -39 -165 -11 -86 35 -111 46 -134 58
-10 5 -26 11 -36 13 -10 2 -38 13 -62 24 -25 11 -69 29 -98 41 -29 12 -72 29
-94 39 -23 9 -61 26 -86 36 -25 10 -58 23 -75 30 -16 7 -82 34 -145 59 -63 26
-124 51 -135 56 -11 5 -72 30 -135 56 -63 25 -133 54 -155 64 -22 9 -56 23
-75 30 -19 7 -53 21 -75 30 -22 10 -92 39 -155 64 -63 26 -124 51 -135 56 -36
16 -170 72 -180 74 -9 3 -26 9 -92 38 -16 6 -30 12 -33 13 -9 3 -65 26 -175
72 -60 25 -137 56 -170 70 -33 13 -69 28 -80 33 -11 5 -76 32 -145 61 -69 28
-136 56 -150 61 -14 6 -30 12 -35 13 -6 2 -31 12 -55 23 -25 11 -119 50 -210
86 -91 37 -178 73 -195 81 -16 7 -66 28 -110 45 -44 18 -93 38 -110 45 -16 7
-52 22 -80 33 l-50 21 0 85 c0 47 -2 86 -5 86 -3 0 -3 36 0 80 3 44 3 80 0 80
-3 0 -3 36 0 80 3 44 3 80 0 80 -3 0 -3 36 0 80 3 44 3 80 0 80 -3 0 -3 180 0
400 3 220 3 400 0 400 -3 0 -3 36 0 80 3 44 3 80 0 80 -3 0 -3 468 0 1040 3
572 3 1040 0 1040 -3 0 -3 36 0 80 3 44 3 80 0 80 -3 0 -3 180 0 400 3 220 3
400 0 400 -10 0 -1 203 8 209 6 3 1598 6 3539 6 l3528 0 3 -740z"/>
</g>
</svg>
